<svg width="328" height="29" viewBox="0 0 328 29" fill="none" xmlns="http://www.w3.org/2000/svg">
<path d="M12.964 11.92C12.964 11.6773 12.9173 11.5093 12.824 11.416C12.7307 11.304 12.544 11.248 12.264 11.248H7.924V20.88C7.924 21.1973 7.96133 21.412 8.036 21.524C8.12933 21.6173 8.32533 21.664 8.624 21.664V22H5.376V21.664C5.67467 21.664 5.86133 21.6173 5.936 21.524C6.02933 21.412 6.076 21.1973 6.076 20.88V11.248H1.736C1.456 11.248 1.26933 11.304 1.176 11.416C1.08267 11.5093 1.036 11.6773 1.036 11.92H0.7V9.008H1.036C1.036 9.25067 1.08267 9.428 1.176 9.54C1.26933 9.63333 1.456 9.68 1.736 9.68H12.264C12.544 9.68 12.7307 9.63333 12.824 9.54C12.9173 9.428 12.964 9.25067 12.964 9.008H13.3V11.92H12.964ZM19.348 20.88C19.348 21.1973 19.3853 21.412 19.46 21.524C19.5533 21.6173 19.7493 21.664 20.048 21.664V22H16.912V21.664C17.2107 21.664 17.3973 21.6173 17.472 21.524C17.5653 21.412 17.612 21.1973 17.612 20.88V10.8C17.612 10.4827 17.5653 10.2773 17.472 10.184C17.3973 10.072 17.2107 10.016 16.912 10.016V9.68H25.48C26.712 9.68 27.608 9.988 28.168 10.604C28.728 11.22 29.008 12.06 29.008 13.124C29.008 14.2067 28.7093 15.028 28.112 15.588C27.5333 16.1293 26.7027 16.4187 25.62 16.456L28.7 21.16C28.8307 21.3653 28.9427 21.5053 29.036 21.58C29.1293 21.636 29.2507 21.664 29.4 21.664V22H26.376V21.664C26.5813 21.664 26.7027 21.6547 26.74 21.636C26.796 21.5987 26.824 21.5333 26.824 21.44C26.824 21.3467 26.796 21.2533 26.74 21.16C26.684 21.0667 26.6093 20.936 26.516 20.768L23.772 16.456H19.348V20.88ZM25.312 14.888C25.984 14.888 26.46 14.7387 26.74 14.44C27.02 14.1413 27.16 13.684 27.16 13.068C27.16 12.396 27.0107 11.9107 26.712 11.612C26.432 11.2947 25.872 11.136 25.032 11.136H19.348V14.888H25.312ZM34.9532 10.8C34.9532 10.4827 34.9065 10.2773 34.8132 10.184C34.7385 10.072 34.5705 10.016 34.3092 10.016V9.68H45.5932C45.8732 9.68 46.0599 9.63333 46.1532 9.54C46.2465 9.428 46.2932 9.25067 46.2932 9.008H46.6292V11.92H46.2932C46.2932 11.6773 46.2465 11.5093 46.1532 11.416C46.0599 11.304 45.8732 11.248 45.5932 11.248H36.8012V14.888H42.9892C43.2692 14.888 43.4559 14.8413 43.5492 14.748C43.6425 14.636 43.6892 14.4587 43.6892 14.216H44.0252V17.128H43.6892C43.6892 16.8853 43.6425 16.7173 43.5492 16.624C43.4559 16.512 43.2692 16.456 42.9892 16.456H36.8012V20.432H45.9012C46.1812 20.432 46.3679 20.3853 46.4612 20.292C46.5545 20.18 46.6012 20.0027 46.6012 19.76H46.9372V22.588H46.6012C46.6012 22.3453 46.5545 22.1867 46.4612 22.112C46.3679 22.0373 46.1812 22 45.9012 22H34.3092V21.664C34.5705 21.664 34.7385 21.6173 34.8132 21.524C34.9065 21.412 34.9532 21.1973 34.9532 20.88V10.8ZM53.9464 16.792H59.4064L56.5784 10.912L53.9464 16.792ZM49.6064 21.664C49.905 21.664 50.101 21.5987 50.1944 21.468C50.3064 21.3373 50.409 21.1693 50.5024 20.964L54.9264 10.828C55.0197 10.604 55.0664 10.4453 55.0664 10.352C55.0664 10.2587 55.0104 10.1747 54.8984 10.1C54.805 10.0253 54.6277 9.97867 54.3664 9.96V9.68H58.9024V10.016C58.753 10.016 58.6037 10.044 58.4544 10.1C58.3237 10.1373 58.2584 10.2213 58.2584 10.352C58.2584 10.4453 58.277 10.5387 58.3144 10.632C58.3704 10.7253 58.417 10.8187 58.4544 10.912L63.2424 21.104C63.2984 21.2347 63.3824 21.3653 63.4944 21.496C63.6064 21.608 63.8117 21.664 64.1104 21.664V22H60.5824V21.664C60.9184 21.664 61.1424 21.636 61.2544 21.58C61.3664 21.524 61.4224 21.44 61.4224 21.328C61.4224 21.1973 61.4037 21.0853 61.3664 20.992C61.329 20.8987 61.2917 20.8053 61.2544 20.712L60.1064 18.36H53.3024L52.3504 20.488C52.2757 20.656 52.1917 20.8147 52.0984 20.964C52.0237 21.1133 51.9864 21.2347 51.9864 21.328C51.9864 21.44 52.0424 21.524 52.1544 21.58C52.2664 21.636 52.4624 21.664 52.7424 21.664V22H49.6064V21.664ZM67.853 18.556C67.8156 18.7427 67.797 18.864 67.797 18.92C67.797 19.0693 67.937 19.2467 68.217 19.452C68.5156 19.6387 68.8983 19.816 69.365 19.984C69.8503 20.152 70.401 20.3013 71.017 20.432C71.6516 20.544 72.305 20.6 72.977 20.6C74.265 20.6 75.2636 20.432 75.973 20.096C76.701 19.7413 77.065 19.2467 77.065 18.612C77.065 18.0147 76.813 17.5947 76.309 17.352C75.8236 17.1093 75.2076 16.9413 74.461 16.848C73.7143 16.736 72.9023 16.6613 72.025 16.624C71.1663 16.568 70.3636 16.4467 69.617 16.26C68.8703 16.0733 68.245 15.7653 67.741 15.336C67.2556 14.9067 67.013 14.2627 67.013 13.404C67.013 12.6947 67.153 12.0973 67.433 11.612C67.7316 11.108 68.1236 10.7067 68.609 10.408C69.0943 10.0907 69.6543 9.86667 70.289 9.736C70.9423 9.58667 71.6143 9.512 72.305 9.512C73.033 9.512 73.677 9.568 74.237 9.68C74.797 9.77333 75.273 9.88533 75.665 10.016C76.0756 10.1467 76.4023 10.268 76.645 10.38C76.8876 10.4733 77.065 10.52 77.177 10.52C77.2703 10.52 77.345 10.5013 77.401 10.464C77.457 10.408 77.5316 10.296 77.625 10.128L77.989 10.268L76.953 13.012L76.617 12.872C76.6356 12.8347 76.645 12.7973 76.645 12.76C76.6636 12.704 76.673 12.6293 76.673 12.536C76.673 12.3867 76.5423 12.228 76.281 12.06C76.0383 11.892 75.7023 11.7333 75.273 11.584C74.8623 11.4347 74.3863 11.3133 73.845 11.22C73.3223 11.1267 72.781 11.08 72.221 11.08C71.493 11.08 70.905 11.1453 70.457 11.276C70.009 11.388 69.6543 11.5467 69.393 11.752C69.1503 11.9387 68.9823 12.1627 68.889 12.424C68.7956 12.6667 68.749 12.9187 68.749 13.18C68.749 13.7213 68.9916 14.1133 69.477 14.356C69.981 14.58 70.6063 14.7387 71.353 14.832C72.0996 14.9253 72.9023 15 73.761 15.056C74.6383 15.0933 75.4503 15.2053 76.197 15.392C76.9436 15.5787 77.5596 15.8867 78.045 16.316C78.549 16.7267 78.801 17.352 78.801 18.192C78.801 19.536 78.3156 20.5253 77.345 21.16C76.393 21.776 74.8436 22.084 72.697 22.084C71.969 22.084 71.3063 22.0373 70.709 21.944C70.1116 21.832 69.5796 21.7107 69.113 21.58C68.665 21.4307 68.2823 21.3 67.965 21.188C67.6476 21.0573 67.4143 20.992 67.265 20.992C67.1156 20.992 67.0036 21.0387 66.929 21.132C66.8543 21.2253 66.7983 21.3187 66.761 21.412L66.425 21.3L67.517 18.472L67.853 18.556ZM96.2636 18.08C96.2636 18.864 96.0769 19.5173 95.7036 20.04C95.3302 20.5627 94.8449 20.9827 94.2476 21.3C93.6502 21.5987 92.9876 21.804 92.2596 21.916C91.5316 22.028 90.8129 22.084 90.1036 22.084C89.3942 22.084 88.6756 22.028 87.9476 21.916C87.2196 21.804 86.5569 21.5987 85.9596 21.3C85.3622 20.9827 84.8769 20.5627 84.5036 20.04C84.1302 19.5173 83.9436 18.864 83.9436 18.08V10.8C83.9436 10.4827 83.9062 10.2773 83.8316 10.184C83.7569 10.072 83.5982 10.016 83.3556 10.016V9.68H86.2676V10.016C86.0249 10.016 85.8662 10.072 85.7916 10.184C85.7169 10.2773 85.6796 10.4827 85.6796 10.8V17.716C85.6796 18.78 86.0809 19.5267 86.8836 19.956C87.6862 20.3853 88.7596 20.6 90.1036 20.6C91.4476 20.6 92.5209 20.3853 93.3236 19.956C94.1262 19.5267 94.5276 18.78 94.5276 17.716V10.8C94.5276 10.4827 94.4902 10.2773 94.4156 10.184C94.3409 10.072 94.1822 10.016 93.9396 10.016V9.68H96.8516V10.016C96.6089 10.016 96.4502 10.072 96.3756 10.184C96.3009 10.2773 96.2636 10.4827 96.2636 10.8V18.08ZM104.775 20.88C104.775 21.1973 104.813 21.412 104.887 21.524C104.981 21.6173 105.177 21.664 105.475 21.664V22H102.339V21.664C102.638 21.664 102.825 21.6173 102.899 21.524C102.993 21.412 103.039 21.1973 103.039 20.88V10.8C103.039 10.4827 102.993 10.2773 102.899 10.184C102.825 10.072 102.638 10.016 102.339 10.016V9.68H110.907C112.139 9.68 113.035 9.988 113.595 10.604C114.155 11.22 114.435 12.06 114.435 13.124C114.435 14.2067 114.137 15.028 113.539 15.588C112.961 16.1293 112.13 16.4187 111.047 16.456L114.127 21.16C114.258 21.3653 114.37 21.5053 114.463 21.58C114.557 21.636 114.678 21.664 114.827 21.664V22H111.803V21.664C112.009 21.664 112.13 21.6547 112.167 21.636C112.223 21.5987 112.251 21.5333 112.251 21.44C112.251 21.3467 112.223 21.2533 112.167 21.16C112.111 21.0667 112.037 20.936 111.943 20.768L109.199 16.456H104.775V20.88ZM110.739 14.888C111.411 14.888 111.887 14.7387 112.167 14.44C112.447 14.1413 112.587 13.684 112.587 13.068C112.587 12.396 112.438 11.9107 112.139 11.612C111.859 11.2947 111.299 11.136 110.459 11.136H104.775V14.888H110.739ZM122.285 21.664C122.527 21.664 122.686 21.6173 122.761 21.524C122.835 21.412 122.873 21.1973 122.873 20.88V16.904L118.589 10.744C118.458 10.5573 118.29 10.3893 118.085 10.24C117.898 10.0907 117.702 10.016 117.497 10.016V9.68H120.969V10.016C120.595 10.016 120.409 10.1093 120.409 10.296C120.409 10.3893 120.446 10.492 120.521 10.604C120.595 10.6973 120.661 10.7813 120.717 10.856L123.881 15.364L127.465 10.828C127.67 10.5667 127.773 10.3893 127.773 10.296C127.773 10.184 127.735 10.1093 127.661 10.072C127.605 10.0347 127.465 10.016 127.241 10.016V9.68H130.713V10.016C130.395 10.016 130.162 10.1 130.013 10.268C129.863 10.4173 129.649 10.6693 129.369 11.024L124.721 16.904V20.88C124.721 21.1973 124.758 21.412 124.833 21.524C124.926 21.6173 125.122 21.664 125.421 21.664V22H122.285V21.664ZM145.347 21.664C145.608 21.664 145.776 21.6453 145.851 21.608C145.926 21.552 145.963 21.4587 145.963 21.328C145.963 21.2347 145.926 21.1227 145.851 20.992C145.776 20.8427 145.72 20.6933 145.683 20.544L141.735 10.744C141.623 10.464 141.511 10.2773 141.399 10.184C141.287 10.072 141.128 10.016 140.923 10.016V9.68H144.115V10.016C143.592 10.016 143.331 10.1187 143.331 10.324C143.331 10.4173 143.359 10.52 143.415 10.632C143.471 10.7253 143.518 10.828 143.555 10.94L146.943 19.312H146.999L150.051 10.912C150.088 10.8 150.126 10.6973 150.163 10.604C150.2 10.5107 150.219 10.4173 150.219 10.324C150.219 10.1187 150.023 10.016 149.631 10.016V9.68H152.991V10.016C152.599 10.016 152.403 10.0907 152.403 10.24C152.403 10.3333 152.422 10.4267 152.459 10.52C152.515 10.6133 152.562 10.7253 152.599 10.856L155.735 19.312H155.791L158.675 11.08C158.712 10.9307 158.75 10.8093 158.787 10.716C158.824 10.6227 158.843 10.5107 158.843 10.38C158.843 10.1373 158.6 10.016 158.115 10.016V9.68H161.307V10.016C161.046 10.016 160.859 10.0533 160.747 10.128C160.635 10.184 160.542 10.3147 160.467 10.52L156.939 20.544C156.902 20.656 156.855 20.7867 156.799 20.936C156.762 21.0667 156.743 21.188 156.743 21.3C156.743 21.5427 156.939 21.664 157.331 21.664V22H154.307V21.664C154.568 21.664 154.727 21.6453 154.783 21.608C154.858 21.552 154.895 21.4773 154.895 21.384C154.895 21.3093 154.858 21.188 154.783 21.02C154.727 20.852 154.671 20.6933 154.615 20.544L151.255 11.976H151.199L148.203 20.516C148.166 20.6467 148.119 20.7867 148.063 20.936C148.007 21.0667 147.979 21.1973 147.979 21.328C147.979 21.4773 148.044 21.58 148.175 21.636C148.324 21.692 148.464 21.7013 148.595 21.664V22H145.347V21.664ZM165.376 21.664C165.675 21.664 165.861 21.6173 165.936 21.524C166.029 21.412 166.076 21.1973 166.076 20.88V10.8C166.076 10.4827 166.029 10.2773 165.936 10.184C165.861 10.072 165.675 10.016 165.376 10.016V9.68H168.512V10.016C168.213 10.016 168.017 10.072 167.924 10.184C167.849 10.2773 167.812 10.4827 167.812 10.8V20.88C167.812 21.1973 167.849 21.412 167.924 21.524C168.017 21.6173 168.213 21.664 168.512 21.664V22H165.376V21.664ZM174.476 21.664C174.775 21.664 174.971 21.6173 175.064 21.524C175.176 21.412 175.232 21.1973 175.232 20.88V10.8C175.232 10.4827 175.176 10.2773 175.064 10.184C174.971 10.072 174.775 10.016 174.476 10.016V9.68H178.564V10.016C178.266 10.016 178.06 10.044 177.948 10.1C177.855 10.1373 177.808 10.1933 177.808 10.268C177.808 10.324 177.911 10.4827 178.116 10.744L185.704 19.452V10.8C185.704 10.4827 185.648 10.2773 185.536 10.184C185.443 10.072 185.247 10.016 184.948 10.016V9.68H188.028V10.016C187.73 10.016 187.524 10.072 187.412 10.184C187.319 10.2773 187.272 10.4827 187.272 10.8V20.88C187.272 21.1973 187.319 21.412 187.412 21.524C187.524 21.6173 187.73 21.664 188.028 21.664V22H184.276V21.664C184.65 21.664 184.874 21.6453 184.948 21.608C185.023 21.5707 185.06 21.5053 185.06 21.412C185.06 21.3187 185.023 21.244 184.948 21.188C184.892 21.1133 184.818 21.02 184.724 20.908L176.8 11.864V20.88C176.8 21.1973 176.847 21.412 176.94 21.524C177.052 21.6173 177.258 21.664 177.556 21.664V22H174.476V21.664ZM194.132 10.8C194.132 10.4827 194.085 10.2773 193.992 10.184C193.917 10.072 193.749 10.016 193.488 10.016V9.68H204.772C205.052 9.68 205.239 9.63333 205.332 9.54C205.425 9.428 205.472 9.25067 205.472 9.008H205.808V11.92H205.472C205.472 11.6773 205.425 11.5093 205.332 11.416C205.239 11.304 205.052 11.248 204.772 11.248H195.98V14.888H202.168C202.448 14.888 202.635 14.8413 202.728 14.748C202.821 14.636 202.868 14.4587 202.868 14.216H203.204V17.128H202.868C202.868 16.8853 202.821 16.7173 202.728 16.624C202.635 16.512 202.448 16.456 202.168 16.456H195.98V20.432H205.08C205.36 20.432 205.547 20.3853 205.64 20.292C205.733 20.18 205.78 20.0027 205.78 19.76H206.116V22.588H205.78C205.78 22.3453 205.733 22.1867 205.64 22.112C205.547 22.0373 205.36 22 205.08 22H193.488V21.664C193.749 21.664 193.917 21.6173 193.992 21.524C194.085 21.412 194.132 21.1973 194.132 20.88V10.8ZM220.368 10.8C220.368 10.4827 220.321 10.2773 220.228 10.184C220.153 10.072 219.985 10.016 219.724 10.016V9.68H231.008C231.288 9.68 231.475 9.63333 231.568 9.54C231.661 9.428 231.708 9.25067 231.708 9.008H232.044V11.92H231.708C231.708 11.6773 231.661 11.5093 231.568 11.416C231.475 11.304 231.288 11.248 231.008 11.248H222.216V14.888H228.404C228.684 14.888 228.871 14.8413 228.964 14.748C229.057 14.636 229.104 14.4587 229.104 14.216H229.44V17.128H229.104C229.104 16.8853 229.057 16.7173 228.964 16.624C228.871 16.512 228.684 16.456 228.404 16.456H222.216V20.432H231.316C231.596 20.432 231.783 20.3853 231.876 20.292C231.969 20.18 232.016 20.0027 232.016 19.76H232.352V22.588H232.016C232.016 22.3453 231.969 22.1867 231.876 22.112C231.783 22.0373 231.596 22 231.316 22H219.724V21.664C219.985 21.664 220.153 21.6173 220.228 21.524C220.321 21.412 220.368 21.1973 220.368 20.88V10.8ZM237.429 18.556C237.392 18.7427 237.373 18.864 237.373 18.92C237.373 19.0693 237.513 19.2467 237.793 19.452C238.092 19.6387 238.474 19.816 238.941 19.984C239.426 20.152 239.977 20.3013 240.593 20.432C241.228 20.544 241.881 20.6 242.553 20.6C243.841 20.6 244.84 20.432 245.549 20.096C246.277 19.7413 246.641 19.2467 246.641 18.612C246.641 18.0147 246.389 17.5947 245.885 17.352C245.4 17.1093 244.784 16.9413 244.037 16.848C243.29 16.736 242.478 16.6613 241.601 16.624C240.742 16.568 239.94 16.4467 239.193 16.26C238.446 16.0733 237.821 15.7653 237.317 15.336C236.832 14.9067 236.589 14.2627 236.589 13.404C236.589 12.6947 236.729 12.0973 237.009 11.612C237.308 11.108 237.7 10.7067 238.185 10.408C238.67 10.0907 239.23 9.86667 239.865 9.736C240.518 9.58667 241.19 9.512 241.881 9.512C242.609 9.512 243.253 9.568 243.813 9.68C244.373 9.77333 244.849 9.88533 245.241 10.016C245.652 10.1467 245.978 10.268 246.221 10.38C246.464 10.4733 246.641 10.52 246.753 10.52C246.846 10.52 246.921 10.5013 246.977 10.464C247.033 10.408 247.108 10.296 247.201 10.128L247.565 10.268L246.529 13.012L246.193 12.872C246.212 12.8347 246.221 12.7973 246.221 12.76C246.24 12.704 246.249 12.6293 246.249 12.536C246.249 12.3867 246.118 12.228 245.857 12.06C245.614 11.892 245.278 11.7333 244.849 11.584C244.438 11.4347 243.962 11.3133 243.421 11.22C242.898 11.1267 242.357 11.08 241.797 11.08C241.069 11.08 240.481 11.1453 240.033 11.276C239.585 11.388 239.23 11.5467 238.969 11.752C238.726 11.9387 238.558 12.1627 238.465 12.424C238.372 12.6667 238.325 12.9187 238.325 13.18C238.325 13.7213 238.568 14.1133 239.053 14.356C239.557 14.58 240.182 14.7387 240.929 14.832C241.676 14.9253 242.478 15 243.337 15.056C244.214 15.0933 245.026 15.2053 245.773 15.392C246.52 15.5787 247.136 15.8867 247.621 16.316C248.125 16.7267 248.377 17.352 248.377 18.192C248.377 19.536 247.892 20.5253 246.921 21.16C245.969 21.776 244.42 22.084 242.273 22.084C241.545 22.084 240.882 22.0373 240.285 21.944C239.688 21.832 239.156 21.7107 238.689 21.58C238.241 21.4307 237.858 21.3 237.541 21.188C237.224 21.0573 236.99 20.992 236.841 20.992C236.692 20.992 236.58 21.0387 236.505 21.132C236.43 21.2253 236.374 21.3187 236.337 21.412L236.001 21.3L237.093 18.472L237.429 18.556ZM263.292 11.92C263.292 11.6773 263.245 11.5093 263.152 11.416C263.058 11.304 262.872 11.248 262.592 11.248H258.252V20.88C258.252 21.1973 258.289 21.412 258.364 21.524C258.457 21.6173 258.653 21.664 258.952 21.664V22H255.704V21.664C256.002 21.664 256.189 21.6173 256.264 21.524C256.357 21.412 256.404 21.1973 256.404 20.88V11.248H252.064C251.784 11.248 251.597 11.304 251.504 11.416C251.41 11.5093 251.364 11.6773 251.364 11.92H251.028V9.008H251.364C251.364 9.25067 251.41 9.428 251.504 9.54C251.597 9.63333 251.784 9.68 252.064 9.68H262.592C262.872 9.68 263.058 9.63333 263.152 9.54C263.245 9.428 263.292 9.25067 263.292 9.008H263.628V11.92H263.292ZM269.48 16.792H274.94L272.112 10.912L269.48 16.792ZM265.14 21.664C265.438 21.664 265.634 21.5987 265.728 21.468C265.84 21.3373 265.942 21.1693 266.036 20.964L270.46 10.828C270.553 10.604 270.6 10.4453 270.6 10.352C270.6 10.2587 270.544 10.1747 270.432 10.1C270.338 10.0253 270.161 9.97867 269.9 9.96V9.68H274.436V10.016C274.286 10.016 274.137 10.044 273.988 10.1C273.857 10.1373 273.792 10.2213 273.792 10.352C273.792 10.4453 273.81 10.5387 273.848 10.632C273.904 10.7253 273.95 10.8187 273.988 10.912L278.776 21.104C278.832 21.2347 278.916 21.3653 279.028 21.496C279.14 21.608 279.345 21.664 279.644 21.664V22H276.116V21.664C276.452 21.664 276.676 21.636 276.788 21.58C276.9 21.524 276.956 21.44 276.956 21.328C276.956 21.1973 276.937 21.0853 276.9 20.992C276.862 20.8987 276.825 20.8053 276.788 20.712L275.64 18.36H268.836L267.884 20.488C267.809 20.656 267.725 20.8147 267.632 20.964C267.557 21.1133 267.52 21.2347 267.52 21.328C267.52 21.44 267.576 21.524 267.688 21.58C267.8 21.636 267.996 21.664 268.276 21.664V22H265.14V21.664ZM293.41 11.92C293.41 11.6773 293.364 11.5093 293.27 11.416C293.177 11.304 292.99 11.248 292.71 11.248H288.37V20.88C288.37 21.1973 288.408 21.412 288.482 21.524C288.576 21.6173 288.772 21.664 289.07 21.664V22H285.822V21.664C286.121 21.664 286.308 21.6173 286.382 21.524C286.476 21.412 286.522 21.1973 286.522 20.88V11.248H282.182C281.902 11.248 281.716 11.304 281.622 11.416C281.529 11.5093 281.482 11.6773 281.482 11.92H281.146V9.008H281.482C281.482 9.25067 281.529 9.428 281.622 9.54C281.716 9.63333 281.902 9.68 282.182 9.68H292.71C292.99 9.68 293.177 9.63333 293.27 9.54C293.364 9.428 293.41 9.25067 293.41 9.008H293.746V11.92H293.41ZM298.002 10.8C298.002 10.4827 297.956 10.2773 297.862 10.184C297.788 10.072 297.62 10.016 297.358 10.016V9.68H308.642C308.922 9.68 309.109 9.63333 309.202 9.54C309.296 9.428 309.342 9.25067 309.342 9.008H309.678V11.92H309.342C309.342 11.6773 309.296 11.5093 309.202 11.416C309.109 11.304 308.922 11.248 308.642 11.248H299.85V14.888H306.038C306.318 14.888 306.505 14.8413 306.598 14.748C306.692 14.636 306.738 14.4587 306.738 14.216H307.074V17.128H306.738C306.738 16.8853 306.692 16.7173 306.598 16.624C306.505 16.512 306.318 16.456 306.038 16.456H299.85V20.432H308.95C309.23 20.432 309.417 20.3853 309.51 20.292C309.604 20.18 309.65 20.0027 309.65 19.76H309.986V22.588H309.65C309.65 22.3453 309.604 22.1867 309.51 22.112C309.417 22.0373 309.23 22 308.95 22H297.358V21.664C297.62 21.664 297.788 21.6173 297.862 21.524C297.956 21.412 298.002 21.1973 298.002 20.88V10.8ZM315.063 18.556C315.026 18.7427 315.007 18.864 315.007 18.92C315.007 19.0693 315.147 19.2467 315.427 19.452C315.726 19.6387 316.109 19.816 316.575 19.984C317.061 20.152 317.611 20.3013 318.227 20.432C318.862 20.544 319.515 20.6 320.187 20.6C321.475 20.6 322.474 20.432 323.183 20.096C323.911 19.7413 324.275 19.2467 324.275 18.612C324.275 18.0147 324.023 17.5947 323.519 17.352C323.034 17.1093 322.418 16.9413 321.671 16.848C320.925 16.736 320.113 16.6613 319.235 16.624C318.377 16.568 317.574 16.4467 316.827 16.26C316.081 16.0733 315.455 15.7653 314.951 15.336C314.466 14.9067 314.223 14.2627 314.223 13.404C314.223 12.6947 314.363 12.0973 314.643 11.612C314.942 11.108 315.334 10.7067 315.819 10.408C316.305 10.0907 316.865 9.86667 317.499 9.736C318.153 9.58667 318.825 9.512 319.515 9.512C320.243 9.512 320.887 9.568 321.447 9.68C322.007 9.77333 322.483 9.88533 322.875 10.016C323.286 10.1467 323.613 10.268 323.855 10.38C324.098 10.4733 324.275 10.52 324.387 10.52C324.481 10.52 324.555 10.5013 324.611 10.464C324.667 10.408 324.742 10.296 324.835 10.128L325.199 10.268L324.163 13.012L323.827 12.872C323.846 12.8347 323.855 12.7973 323.855 12.76C323.874 12.704 323.883 12.6293 323.883 12.536C323.883 12.3867 323.753 12.228 323.491 12.06C323.249 11.892 322.913 11.7333 322.483 11.584C322.073 11.4347 321.597 11.3133 321.055 11.22C320.533 11.1267 319.991 11.08 319.431 11.08C318.703 11.08 318.115 11.1453 317.667 11.276C317.219 11.388 316.865 11.5467 316.603 11.752C316.361 11.9387 316.193 12.1627 316.099 12.424C316.006 12.6667 315.959 12.9187 315.959 13.18C315.959 13.7213 316.202 14.1133 316.687 14.356C317.191 14.58 317.817 14.7387 318.563 14.832C319.31 14.9253 320.113 15 320.971 15.056C321.849 15.0933 322.661 15.2053 323.407 15.392C324.154 15.5787 324.77 15.8867 325.255 16.316C325.759 16.7267 326.011 17.352 326.011 18.192C326.011 19.536 325.526 20.5253 324.555 21.16C323.603 21.776 322.054 22.084 319.907 22.084C319.179 22.084 318.517 22.0373 317.919 21.944C317.322 21.832 316.79 21.7107 316.323 21.58C315.875 21.4307 315.493 21.3 315.175 21.188C314.858 21.0573 314.625 20.992 314.475 20.992C314.326 20.992 314.214 21.0387 314.139 21.132C314.065 21.2253 314.009 21.3187 313.971 21.412L313.635 21.3L314.727 18.472L315.063 18.556Z" fill="#313131"/>
</svg>
